<svg width="128" height="128" viewBox="0 0 128 128" fill="none" xmlns="http://www.w3.org/2000/svg">
<rect width="128" height="128" fill="url(#paint0_radial_2_2)"/>
<path d="M56.168 100.96C53.992 95.648 51.816 90.368 49.64 85.12C47.528 79.872 45.384 74.624 43.208 69.376C42.696 68.16 42.024 66.464 41.192 64.288C40.424 62.048 39.592 59.488 38.696 56.608C37.864 53.728 37.096 50.752 36.392 47.68C36.52 51.264 36.616 54.656 36.68 57.856C36.744 60.992 36.744 64 36.68 66.88C36.68 68.288 36.68 69.728 36.68 71.2C36.68 72.672 36.648 74.144 36.584 75.616C36.584 77.024 36.584 78.464 36.584 79.936C36.584 81.344 36.584 82.784 36.584 84.256C36.584 85.984 36.52 87.648 36.392 89.248C36.328 90.848 36.232 92.064 36.104 92.896C37.192 92.768 38.504 92.704 40.04 92.704C41.64 92.64 42.76 92.608 43.4 92.608V100H21.512V93.664C22.984 93.6 24.2 93.408 25.16 93.088C26.184 92.768 26.952 92.032 27.464 90.88C28.04 89.728 28.328 87.872 28.328 85.312L28.904 48.544C28.968 46.816 29.032 45.152 29.096 43.552C29.16 41.952 29.224 40.736 29.288 39.904C28.264 39.968 26.984 40.032 25.448 40.096C23.912 40.096 22.792 40.128 22.088 40.192V32.8H43.304L57.8 69.952C58.376 71.424 59.016 73.152 59.72 75.136C60.424 77.056 61.096 78.944 61.736 80.8C62.376 82.592 62.856 84.032 63.176 85.12H63.272C64.104 82.88 64.872 80.704 65.576 78.592C66.28 76.48 67.016 74.432 67.784 72.448C70.28 65.792 72.744 59.168 75.176 52.576C77.672 45.984 80.168 39.392 82.664 32.8H104.84V39.136C103.432 39.2 102.184 39.392 101.096 39.712C100.008 40.032 99.176 40.768 98.6 41.92C98.088 43.008 97.864 44.864 97.928 47.488L99.368 84.256C99.496 85.984 99.496 87.648 99.368 89.248C99.24 90.848 99.112 92.064 98.984 92.896C100.072 92.768 101.384 92.704 102.92 92.704C104.52 92.64 105.64 92.608 106.28 92.608V100H79.592V93.664C81.064 93.6 82.312 93.408 83.336 93.088C84.424 92.768 85.224 92.032 85.736 90.88C86.312 89.728 86.536 87.872 86.408 85.312L85.64 64.96C85.64 64.192 85.576 62.88 85.448 61.024C85.32 59.104 85.192 57.024 85.064 54.784C85 52.48 84.936 50.336 84.872 48.352C84.68 48.8 84.488 49.248 84.296 49.696C84.104 50.08 83.944 50.496 83.816 50.944L65.096 100.96H56.168Z" fill="white"/>
<defs>
<radialGradient id="paint0_radial_2_2" cx="0" cy="0" r="1" gradientUnits="userSpaceOnUse" gradientTransform="translate(64 64) rotate(90) scale(64)">
<stop stop-color="#16191D"/>
<stop offset="1" stop-color="#1E1E1E" stop-opacity="0"/>
</radialGradient>
</defs>
</svg>
