<svg width="500" height="500" viewBox="0 0 500 500" fill="none" xmlns="http://www.w3.org/2000/svg">
<circle cx="250" cy="250" r="250" fill="url(#paint0_linear)"/>
<path d="M104.93 286.125V271.305L74.9609 261.297L71.2422 259.984L74.9609 258.617L104.93 248.445V233.68L56.5312 253.75V266.055L104.93 286.125ZM141.297 214.375H122.211V294H136.32V270.43L135.664 234.664L145.016 267.75H152.617L163.062 233.188L162.406 270.43V294H176.516V214.375H157.43L148.844 244.289L141.297 214.375ZM244.984 269.062H229.617C229.471 271.469 229.07 273.529 228.414 275.242C227.758 276.956 226.865 278.359 225.734 279.453C224.604 280.547 223.237 281.349 221.633 281.859C220.029 282.37 218.224 282.625 216.219 282.625C214.724 282.625 213.357 282.461 212.117 282.133C210.914 281.768 209.82 281.221 208.836 280.492C207.924 279.836 207.104 279.016 206.375 278.031C205.682 277.047 205.081 275.917 204.57 274.641C203.841 272.781 203.294 270.612 202.93 268.133C202.602 265.617 202.438 262.773 202.438 259.602V248.773C202.438 246.44 202.547 244.271 202.766 242.266C202.984 240.224 203.331 238.365 203.805 236.688C204.424 234.536 205.245 232.659 206.266 231.055C207.323 229.414 208.599 228.156 210.094 227.281C210.969 226.771 211.917 226.388 212.938 226.133C213.995 225.878 215.125 225.75 216.328 225.75C218.589 225.75 220.521 226.06 222.125 226.68C223.766 227.263 225.133 228.138 226.227 229.305C227.284 230.508 228.086 232.003 228.633 233.789C229.216 235.576 229.581 237.654 229.727 240.023H245.039C244.674 235.867 243.799 232.13 242.414 228.812C241.029 225.495 239.133 222.688 236.727 220.391C234.32 218.094 231.404 216.326 227.977 215.086C224.586 213.846 220.703 213.227 216.328 213.227C213.375 213.227 210.604 213.609 208.016 214.375C205.464 215.104 203.112 216.161 200.961 217.547C198.555 219.188 196.404 221.193 194.508 223.562C192.612 225.932 191.081 228.63 189.914 231.656C188.893 234.135 188.128 236.833 187.617 239.75C187.107 242.63 186.852 245.674 186.852 248.883V259.602C186.852 263.029 187.125 266.273 187.672 269.336C188.255 272.398 189.076 275.206 190.133 277.758C191.227 280.31 192.557 282.643 194.125 284.758C195.729 286.872 197.552 288.677 199.594 290.172C201.818 291.776 204.315 293.016 207.086 293.891C209.893 294.729 212.938 295.148 216.219 295.148C220.375 295.148 224.167 294.547 227.594 293.344C231.021 292.104 233.974 290.354 236.453 288.094C238.932 285.833 240.901 283.099 242.359 279.891C243.854 276.682 244.729 273.073 244.984 269.062ZM343.258 300.836L373.062 214.375H358.898L329.094 300.836H343.258ZM393.133 286.18L442.352 266.109V253.695L393.133 233.68V248.391L424.523 258.727L427.805 259.82L424.469 260.914L393.133 271.414V286.18Z" fill="#111827"/>
<defs>
<linearGradient id="paint0_linear" x1="55" y1="75" x2="500" y2="441" gradientUnits="userSpaceOnUse">
<stop stop-color="#FF9F1C"/>
<stop offset="1" stop-color="#B4DA55"/>
</linearGradient>
</defs>
</svg>
